<?xml version="1.0" encoding="utf-8"?>
<!-- Generator: Adobe Illustrator 22.0.1, SVG Export Plug-In . SVG Version: 6.00 Build 0)  -->
<svg version="1.1" xmlns="http://www.w3.org/2000/svg" xmlns:xlink="http://www.w3.org/1999/xlink" x="0px" y="0px"
	 viewBox="0 0 38.7 24.4" style="enable-background:new 0 0 38.7 24.4;" xml:space="preserve">
<style type="text/css">
	.st0{display:none;}
	.st1{fill:#FFFFFF;}
	.st2{fill:#CB831D;}
	.st3{fill:#FFFFFF;stroke:#666666;stroke-miterlimit:10;}
	.st4{opacity:0.2;fill:#FFFFFF;stroke:#666666;stroke-miterlimit:10;}
	.st5{opacity:0.11;}
	.st6{fill:none;stroke:#FFFFFF;stroke-miterlimit:10;}
	.st7{opacity:0.43;fill:#F0F0F0;}
	.st8{fill:none;stroke:#F0F0F0;stroke-miterlimit:10;}
	.st9{opacity:0.65;fill:#333333;}
</style>
<g id="圖層_2" class="st0">
</g>
<g id="圖層_3">
</g>
<g id="圖層_1">
	<path class="st1" d="M37.4,10.9H4.5l8.7-8.7c0.5-0.5,0.5-1.4,0-1.9c-0.5-0.5-1.4-0.5-1.9,0L0.4,11.2c-0.3,0.3-0.4,0.6-0.4,1
		s0.1,0.7,0.4,1L11.3,24c0.3,0.3,0.6,0.4,0.9,0.4s0.7-0.1,0.9-0.4c0.5-0.5,0.5-1.4,0-1.9l-8.6-8.6h32.9c0.7,0,1.3-0.6,1.3-1.3
		S38.1,10.9,37.4,10.9z"/>
</g>
</svg>
