<svg xmlns="http://www.w3.org/2000/svg" viewBox="0 0 45.07 45.09"><defs><style>.cls-1{fill:#fff;}</style></defs><title>設計規範 (1)</title><g id="圖層_1" data-name="圖層 1"><path class="cls-1" d="M28.33,16.38a.62.62,0,0,0-.44.18.65.65,0,0,0-.18.44.67.67,0,0,0,.18.44.62.62,0,0,0,.44.18.59.59,0,0,0,.44-.18A.63.63,0,0,0,29,17a.61.61,0,0,0-.19-.44A.59.59,0,0,0,28.33,16.38Z"/><path class="cls-1" d="M22.54,17.17a5.63,5.63,0,1,0,5.63,5.63A5.63,5.63,0,0,0,22.54,17.17Zm0,10a4.39,4.39,0,1,1,4.38-4.38A4.39,4.39,0,0,1,22.54,27.18Z"/><path class="cls-1" d="M45.07,22.54A22.54,22.54,0,1,0,0,22.54v0H0a22.54,22.54,0,0,0,45.07,0h0Zm-11.9,3.59a7.31,7.31,0,0,1-7.29,7.3H19.2a7.31,7.31,0,0,1-7.3-7.3V19.46a7.31,7.31,0,0,1,7.3-7.3h6.68a7.31,7.31,0,0,1,7.29,7.3Z"/></g></svg>