<svg xmlns="http://www.w3.org/2000/svg" viewBox="0 0 45.07 45.07"><defs><style>.cls-1{fill:#fff;}</style></defs><title>設計規範 (1)</title><g id="圖層_1" data-name="圖層 1"><polygon class="cls-1" points="20.08 26.3 26.52 22.55 20.08 18.8 20.08 26.3"/><path class="cls-1" d="M22.54,0A22.54,22.54,0,1,0,45.07,22.54,22.54,22.54,0,0,0,22.54,0ZM34.88,22.77a31.78,31.78,0,0,1-.52,5.81v0a3.14,3.14,0,0,1-2.15,2.16c-1.94.52-9.66.52-9.66.52s-7.74,0-9.67-.52h0a3.09,3.09,0,0,1-2.12-2.17l0,.2a34.25,34.25,0,0,1,0-12.28v0a3.14,3.14,0,0,1,2.14-2.16c1.95-.53,9.67-.52,9.67-.52s7.74,0,9.66.52h0a3.12,3.12,0,0,1,2.13,2.17l0-.2a33.09,33.09,0,0,1,.55,6,1.85,1.85,0,0,1,0,.24A1.62,1.62,0,0,1,34.88,22.77Z"/></g></svg>