<?xml version="1.0" encoding="utf-8"?>
<!-- Generator: Adobe Illustrator 22.0.1, SVG Export Plug-In . SVG Version: 6.00 Build 0)  -->
<svg version="1.1" id="圖層_1" xmlns="http://www.w3.org/2000/svg" xmlns:xlink="http://www.w3.org/1999/xlink" x="0px" y="0px"
	 viewBox="0 0 739.5 310.9" style="enable-background:new 0 0 739.5 310.9;" xml:space="preserve">
<style type="text/css">
	.st0{fill:none;}
	.st1{fill:#FFFFFF;}
	.st2{font-family:'TrajanPro-Bold';}
	.st3{font-size:94.425px;}
	.st4{font-size:72.6346px;}
</style>
<g>
	<rect x="227.4" y="54.1" class="st0" width="511.1" height="202.7"/>
	<text transform="matrix(1 0 0 1 247.3982 136.7142)"><tspan x="0" y="0" class="st1 st2 st3">G</tspan><tspan x="83.7" y="0" class="st1 st2 st4">REGORIO </tspan><tspan x="11.8" y="113.3" class="st1 st2 st4">MARTÍNE</tspan><tspan x="392.3" y="113.3" class="st1 st2 st3">Z</tspan></text>
	<path class="st1" d="M169,40.1c-4.3-6.5-13.1-15-16.2-17.6C129.6,2.9,103-3.9,73.3,2.1C24.9,11.9-7.3,62,3.6,110.3
		c1.6,6.9,3.9,13.6,6.8,20.3c-2.4,0-4.5,0.2-6.5,0c-3.1-0.4-3.9,0.6-3.9,3.8c0.1,56.7,0,176.5,0,176.5h34.5l0.6-112.5
		c0,0,55.8,54.1,57.1,54.2c1.6-0.3,57.6-56.3,57.6-56.3l0,114.7h33.9l1.3-180.1c0,0-2.2,0-7.4,0c5.7-14,8.4-32,7-47.2
		C183,64.1,178.3,55,178.3,55S106.4,80.2,73.6,91.8c-11.4,4-22.8,8.1-34.1,12.2c-2,0.7-4.4,1.6-4,4.2c1.1,6.3,5.4,10.2,10.6,13.3
		c3.1,2.2,10.2,2.5,10.2,2.5s3.8,0.1,5.7-0.6c28.2-10.3,56.4-20.5,84.6-30.8c1.5-0.6,3.1-1.6,4.6-1.2c1.8,0.5,0.5,2.8,1.6,3.9
		c0.1,0.1,0.1,0.2,0.2,0.2c0.5,5.3-0.2,10.5-1.2,15.7c-8.7,45.7-60.6,71.8-102.5,51.4c-17-7.3-28.3-25-30.9-29.3
		C10,119.3,7,103.9,9.1,87.6c2.2-17.1,9.6-31.7,22.4-43.5c16.7-15.4,36.4-21.4,58.8-18.8c14,1.3,34.3,10,48.7,25.9
		c0.8,0.8,0.8,0.8,0.8,0.8l30.5-10.2 M94.3,210.5c-1.7,1.7-2.7,1.8-4.4,0c-2.7-3-26.9-26.9-30.5-31.9c1.4-1.3,2.9-0.4,4.2,0.1
		c17,7,34.5,8.3,52.4,5.2c1.2-0.2,2.6-0.7,3.7,0.5C119.3,186.4,101.6,203.1,94.3,210.5z"/>
</g>
</svg>
